<?xml version="1.0" standalone="no"?>
<!DOCTYPE svg PUBLIC "-//W3C//DTD SVG 20010904//EN"
 "http://www.w3.org/TR/2001/REC-SVG-20010904/DTD/svg10.dtd">
<svg version="1.0" xmlns="http://www.w3.org/2000/svg"
 width="171.000000pt" height="128.000000pt" viewBox="0 0 171.000000 128.000000"
 preserveAspectRatio="xMidYMid meet">
<metadata>
Created by potrace 1.10, written by Peter Selinger 2001-2011
</metadata>
<g transform="translate(0.000000,128.000000) scale(0.100000,-0.100000)"
fill="#000000" stroke="none">
<path d="M1045 1113 c-14 -16 -24 -36 -21 -45 5 -23 -13 -28 -110 -28 -47 0
-90 -5 -97 -10 -7 -6 -24 -19 -39 -31 -51 -38 -31 -78 75 -149 40 -27 51 -47
41 -74 -5 -12 -20 -16 -63 -16 -179 -1 -205 -5 -257 -32 -28 -14 -76 -34 -106
-43 -82 -23 -142 -66 -174 -122 -15 -26 -39 -68 -55 -92 -30 -48 -29 -71 4
-71 22 0 93 71 160 160 41 54 86 99 100 100 4 0 7 -16 7 -36 0 -57 25 -99 76
-125 25 -12 47 -26 50 -31 3 -4 -5 -40 -16 -79 -24 -80 -18 -99 31 -99 28 0
98 -28 130 -53 9 -7 21 -23 28 -35 9 -18 18 -22 35 -18 16 4 30 -2 46 -19 22
-23 61 -35 60 -17 -1 4 -24 25 -51 47 -28 22 -60 52 -71 67 -11 16 -27 28 -37
28 -31 0 -54 35 -47 71 6 31 53 146 66 161 3 5 31 -1 63 -12 31 -11 78 -20
105 -20 47 0 51 -2 115 -69 37 -38 67 -75 67 -83 0 -20 -127 -71 -161 -64 -27
5 -56 -14 -42 -27 14 -14 121 7 181 36 34 16 64 28 67 25 2 -2 -8 -18 -24 -35
-20 -22 -35 -30 -48 -27 -13 4 -23 0 -27 -12 -11 -28 1 -29 54 -4 43 20 55 32
80 82 43 84 40 102 -22 158 -50 45 -51 46 -35 70 8 14 20 52 26 84 6 32 22 83
35 112 20 42 30 54 48 54 18 0 20 2 8 10 -11 7 -11 10 -2 10 17 0 112 -48 130
-67 8 -8 21 -12 29 -9 8 3 18 6 23 6 17 0 17 40 0 67 -45 74 -220 228 -220
193 0 -5 -10 -12 -22 -16 -13 -5 -25 -9 -28 -10 -3 -1 -15 -5 -27 -9 -13 -4
-23 -13 -23 -21 0 -9 -10 -11 -37 -7 -37 6 -38 6 -20 -14 9 -11 17 -23 17 -26
0 -14 -31 -7 -36 8 -4 8 -10 15 -15 15 -6 0 -5 -9 1 -20 6 -11 8 -25 5 -30 -8
-13 -41 -13 -65 0 -19 10 -18 13 11 71 25 48 35 60 52 58 34 -4 64 18 77 56 6
19 18 35 25 35 8 0 17 5 21 12 5 7 0 9 -14 6 -13 -4 -27 1 -38 13 -25 28 -68
24 -99 -8z m81 -11 c8 -5 7 -16 -3 -39 -10 -26 -19 -33 -41 -33 -17 0 -36 -9
-48 -22 -25 -29 -64 -102 -64 -119 0 -8 -9 -20 -20 -27 -11 -7 -20 -22 -20
-34 0 -21 0 -21 -15 -2 -14 19 -21 43 -8 31 8 -8 53 32 53 46 0 6 -7 19 -17
29 -32 36 -92 12 -78 -32 9 -28 -4 -25 -48 11 -45 37 -46 54 -4 79 24 15 50
20 107 20 88 0 121 14 131 54 11 41 45 58 75 38z m240 -207 c64 -64 100 -112
92 -121 -3 -2 -34 9 -69 26 -35 16 -74 30 -85 30 -47 0 -115 -117 -127 -217
-2 -23 -12 -54 -21 -68 -16 -24 -16 -29 -2 -50 13 -20 13 -25 1 -35 -8 -7 -15
-20 -15 -28 0 -10 -18 1 -49 32 -48 47 -51 48 -132 57 -46 5 -88 14 -93 19 -6
6 -24 10 -42 10 -29 0 -34 -5 -59 -57 -40 -85 -52 -124 -49 -160 2 -23 -1 -30
-11 -26 -10 3 -12 14 -9 33 4 16 1 31 -5 35 -18 10 -42 -15 -36 -36 4 -13 1
-19 -9 -19 -20 0 -20 7 -1 60 22 64 19 96 -11 117 -69 48 -94 78 -103 125 -8
46 -7 48 23 66 56 33 91 40 212 41 115 1 120 2 140 27 l21 26 16 -22 c15 -22
16 -22 54 -4 21 11 43 29 48 40 12 24 56 74 66 74 4 0 24 16 44 35 40 36 109
66 135 57 8 -3 42 -33 76 -67z m-439 19 c3 -8 1 -20 -6 -27 -8 -8 -15 -6 -26
9 -20 26 -19 34 5 34 11 0 23 -7 27 -16z m72 -85 c38 -14 39 -20 2 -42 -41
-24 -46 -22 -47 18 -1 39 0 39 45 24z m-606 -236 c-43 -59 -133 -158 -133
-146 0 6 8 21 18 34 10 13 24 39 32 57 12 30 97 108 107 98 3 -2 -8 -22 -24
-43z m817 -171 c32 -28 33 -30 21 -61 -16 -36 -37 -55 -29 -24 3 11 -5 37 -18
59 -38 63 -29 72 26 26z m-520 -72 c0 -5 -4 -10 -10 -10 -5 0 -10 5 -10 10 0
6 5 10 10 10 6 0 10 -4 10 -10z"/>
</g>
</svg>
